HIERARCHY
ROOT Pelvis
{
	OFFSET 0.000000 0.941512 0.000000
	CHANNELS 6 Xposition Yposition Zposition Zrotation Yrotation Xrotation 
	JOINT Pelvis_L_Hip
	{
		OFFSET 0.000000 0.000000 0.000000
		CHANNELS 3 Zrotation Yrotation Xrotation
		JOINT L_Hip
		{
			OFFSET 0.062321 -0.080322 -0.016990
			CHANNELS 3 Zrotation Yrotation Xrotation
			JOINT L_Knee
			{
				OFFSET 0.093051 -0.381305 -0.029784
				CHANNELS 3 Zrotation Yrotation Xrotation
				JOINT L_Ankle
				{
					OFFSET -0.010371 -0.431000 -0.033614
					CHANNELS 3 Zrotation Yrotation Xrotation
					End Site #name: L_Foot
					{
						OFFSET 0.069299 -0.038670 0.119418
					}
				}
			}
		}
	}
	JOINT Pelvis_R_Hip
	{
		OFFSET 0.000000 0.000000 0.000000
		CHANNELS 3 Zrotation Yrotation Xrotation
		JOINT R_Hip
		{
			OFFSET -0.055334 -0.094904 -0.002373
			CHANNELS 3 Zrotation Yrotation Xrotation
			JOINT R_Knee
			{
				OFFSET -0.064207 -0.384370 -0.019592
				CHANNELS 3 Zrotation Yrotation Xrotation
				JOINT R_Ankle
				{
					OFFSET 0.025418 -0.419734 -0.065953
					CHANNELS 3 Zrotation Yrotation Xrotation
					End Site #name: R_Foot
					{
						OFFSET -0.057233 -0.039888 0.132134
					}
				}
			}
		}
	}
	JOINT Pelvis_Spine1
	{
		OFFSET 0.000000 0.000000 0.000000
		CHANNELS 3 Zrotation Yrotation Xrotation
		JOINT Spine1
		{
			OFFSET -0.005562 0.124093 -0.043360
			CHANNELS 3 Zrotation Yrotation Xrotation
			JOINT Spine2
			{
				OFFSET 0.012244 0.139499 0.029894
				CHANNELS 3 Zrotation Yrotation Xrotation
				JOINT Spine3
				{
					OFFSET -0.002556 0.056561 0.009225
					CHANNELS 3 Zrotation Yrotation Xrotation
					JOINT Spine3_Neck
					{
						OFFSET 0.000000 0.000000 0.000000
						CHANNELS 3 Zrotation Yrotation Xrotation
						JOINT Neck
						{
							OFFSET -0.005205 0.217920 -0.024551
							CHANNELS 3 Zrotation Yrotation Xrotation
							End Site #name: Head
							{
								OFFSET 0.002365 0.091850 0.046637
							}
						}
					}
					JOINT Spine3_L_Collar
					{
						OFFSET 0.000000 0.000000 0.000000
						CHANNELS 3 Zrotation Yrotation Xrotation
						JOINT L_Collar
						{
							OFFSET 0.072225 0.116603 -0.009480
							CHANNELS 3 Zrotation Yrotation Xrotation
							JOINT L_Shoulder
							{
								OFFSET 0.115937 -0.058643 -0.021018
								CHANNELS 3 Zrotation Yrotation Xrotation
								JOINT L_Elbow
								{
									OFFSET 0.021994 -0.254722 -0.024492
									CHANNELS 3 Zrotation Yrotation Xrotation
									End Site #name: L_Wrist
									{
										OFFSET 0.048810 -0.240214 0.103329
									}
								}
							}
						}
					}
					JOINT Spine3_R_Collar
					{
						OFFSET 0.000000 0.000000 0.000000
						CHANNELS 3 Zrotation Yrotation Xrotation
						JOINT R_Collar
						{
							OFFSET -0.073372 0.120704 -0.024611
							CHANNELS 3 Zrotation Yrotation Xrotation
							JOINT R_Shoulder
							{
								OFFSET -0.108089 -0.054969 -0.020504
								CHANNELS 3 Zrotation Yrotation Xrotation
								JOINT R_Elbow
								{
									OFFSET -0.033684 -0.260739 0.009889
									CHANNELS 3 Zrotation Yrotation Xrotation
									End Site #name: R_Wrist
									{
										OFFSET -0.067980 -0.232763 0.118463
									}
								}
							}
						}
					}
				}
			}
		}
	}
}
MOTION
Frames: 10
Frame Time: 0.041667
-0.005160 0.941934 -0.022814 -3.742750 -4.733226 -1.188204 0.000000 0.000000 0.000000 3.842213 -6.179728 -29.550153 -1.884741 0.122383 17.411569 7.669151 17.878413 -3.274851 0.000000 0.000000 0.000000 7.919150 -2.161066 7.451307 -3.305408 1.165353 6.850156 2.898948 15.873016 -2.922987 0.000000 0.000000 0.000000 5.314256 -2.517084 10.578257 -2.613227 -0.187811 -9.599316 3.901046 5.566793 6.610288 0.000000 0.000000 0.000000 -5.494692 2.955769 3.498981 0.000000 0.000000 0.000000 18.737626 2.033383 5.474391 -26.983606 3.562876 1.803483 -7.478855 -7.381407 -13.705313 0.000000 0.000000 0.000000 -30.631625 11.996078 -4.573975 19.768430 0.657632 -0.265885 4.215020 9.064867 -18.473084 
-0.001703 0.925175 -0.025476 -3.835171 -5.234536 -0.664047 0.000000 0.000000 0.000000 2.835135 -6.099422 -28.331821 1.877912 -0.292833 3.485906 7.885341 16.217262 -5.322039 0.000000 0.000000 0.000000 6.866719 -2.583124 9.890623 -3.760142 1.679990 10.716660 1.599982 16.797437 -5.607181 0.000000 0.000000 0.000000 5.467527 -2.576593 10.721557 -2.823365 -0.167963 -9.616423 4.041006 5.913768 6.165315 0.000000 0.000000 0.000000 -5.682202 3.048854 3.289748 0.000000 0.000000 0.000000 18.181899 1.046544 4.619783 -26.734759 3.775976 2.608059 -6.942255 -4.874134 -6.483274 0.000000 0.000000 0.000000 -31.836645 13.322875 -5.774285 19.589636 0.628035 -0.129311 1.421740 8.643813 -22.882746 
0.001540 0.912944 -0.021034 -3.273030 -4.842070 -0.996195 0.000000 0.000000 0.000000 1.374581 -6.684489 -29.639593 -0.463153 -0.145683 11.301793 7.660417 13.843318 -6.557800 0.000000 0.000000 0.000000 5.426181 -2.694614 11.404002 -4.886408 2.919276 18.426994 2.237112 18.793237 -5.333222 0.000000 0.000000 0.000000 4.224175 -2.154078 10.427348 -2.464982 -0.171031 -9.140640 3.866728 5.705850 5.714575 0.000000 0.000000 0.000000 -5.138135 2.766395 4.305433 0.000000 0.000000 0.000000 18.517080 -1.324637 2.998990 -27.136729 4.092133 3.425972 -5.554048 -2.037548 1.440662 0.000000 0.000000 0.000000 -31.981887 13.309806 -5.766073 20.585160 0.457274 0.558435 -0.426946 8.175584 -25.621721 
0.006109 0.911568 -0.012084 -2.333708 -4.022219 -0.414307 0.000000 0.000000 0.000000 -0.625057 -7.051798 -29.324121 -1.234511 -0.041806 17.008046 4.595070 12.153743 -0.941438 0.000000 0.000000 0.000000 3.736068 -1.406584 6.102678 -3.976708 4.686746 34.639221 9.229280 19.759993 6.058032 0.000000 0.000000 0.000000 2.191069 -1.372780 8.806871 -1.610030 -0.230550 -8.848349 3.370016 5.066875 4.799365 0.000000 0.000000 0.000000 -4.472569 2.413877 6.062710 0.000000 0.000000 0.000000 18.253135 -2.175538 2.308453 -25.924024 4.461610 5.212718 -5.231792 -0.866597 5.528745 0.000000 0.000000 0.000000 -29.571943 11.762639 -4.387035 20.625720 -0.203645 2.706487 0.385580 8.793630 -25.421575 
0.010777 0.921750 -0.011098 -1.252862 -2.534408 -0.970563 0.000000 0.000000 0.000000 -3.335326 -7.250798 -27.721555 -1.564355 -0.022847 24.200291 5.219289 10.748087 -3.214499 0.000000 0.000000 0.000000 3.491587 0.433697 -3.100578 -2.271750 5.997035 52.986358 18.757843 11.548186 27.046025 0.000000 0.000000 0.000000 0.391629 -1.009001 10.509526 -2.081605 -0.330319 -11.048840 3.508232 4.124136 5.524328 0.000000 0.000000 0.000000 -3.889061 2.081414 6.618339 0.000000 0.000000 0.000000 19.771510 -2.978764 2.049102 -25.421590 4.690418 6.054652 -5.468380 -1.064065 5.105974 0.000000 0.000000 0.000000 -28.692856 10.558514 -3.382478 22.371316 -0.677829 4.072642 2.994491 9.138287 -20.939043 
0.017131 0.930830 -0.010888 -1.078184 -2.638748 -1.903095 0.000000 0.000000 0.000000 -6.028905 -5.618807 -20.445652 -0.301263 -0.371547 22.553922 6.977796 9.789520 -7.563687 0.000000 0.000000 0.000000 3.065120 2.313079 -12.593011 0.809094 5.167312 65.259347 14.145700 6.782630 23.150303 0.000000 0.000000 0.000000 0.581689 -1.192509 11.962045 -2.197586 -0.378095 -11.998580 3.176001 3.903297 6.651626 0.000000 0.000000 0.000000 -4.379623 2.373237 5.640906 0.000000 0.000000 0.000000 20.077464 -3.650740 1.585751 -23.950722 4.297052 5.446921 -6.781729 -2.067358 3.255699 0.000000 0.000000 0.000000 -27.841070 11.248354 -4.040315 23.182214 -1.442271 6.148284 4.335900 8.311345 -16.387553 
0.021059 0.945414 -0.013416 -1.885524 -1.728763 -3.192748 0.000000 0.000000 0.000000 -6.650824 -3.369411 -12.655757 0.431238 -0.559906 19.970902 7.559801 7.521352 -9.984869 0.000000 0.000000 0.000000 2.561000 3.754974 -20.135467 4.076953 1.909656 65.674977 8.948088 3.353335 16.400408 0.000000 0.000000 0.000000 1.825161 -1.833425 13.959734 -2.373086 -0.450773 -13.114951 3.001608 3.264671 7.395257 0.000000 0.000000 0.000000 -4.570283 2.503412 6.445171 0.000000 0.000000 0.000000 20.191728 -4.583521 0.925778 -23.367193 3.510851 3.082937 -6.471364 -2.066114 2.787177 0.000000 0.000000 0.000000 -26.450040 10.132297 -3.186555 23.616258 -1.492213 6.154878 6.162875 6.383010 -8.438643 
0.021913 0.954629 -0.015341 -3.418703 -0.511975 -3.332726 0.000000 0.000000 0.000000 -6.154801 -1.053670 -5.023126 1.710255 -0.736329 15.172385 8.094374 4.656499 -12.339761 0.000000 0.000000 0.000000 3.229348 4.981374 -25.877792 5.267326 0.098714 56.341615 5.365863 1.410521 10.784479 0.000000 0.000000 0.000000 3.507055 -2.430458 13.673795 -1.588635 -0.434092 -11.833971 2.610844 2.794447 6.147455 0.000000 0.000000 0.000000 -4.415174 2.408766 8.185812 0.000000 0.000000 0.000000 20.980699 -5.088362 0.733437 -23.188326 2.734806 0.743250 -7.256295 -3.182283 -0.063413 0.000000 0.000000 0.000000 -25.648730 8.588798 -2.008108 24.410333 -2.297797 8.483885 6.002007 4.931806 -4.928090 
0.025678 0.951702 -0.017167 -3.647867 0.322139 -3.673653 0.000000 0.000000 0.000000 -6.745912 1.309777 2.638489 2.893148 -0.754844 10.468887 8.473556 2.537448 -13.918302 0.000000 0.000000 0.000000 2.879753 5.540911 -29.224899 3.965366 0.407350 41.351702 3.028265 -1.991478 8.551525 0.000000 0.000000 0.000000 4.612366 -2.850014 13.772120 -2.051594 -0.397340 -11.521028 2.719219 2.285043 6.280455 0.000000 0.000000 0.000000 -4.299775 2.333153 7.903451 0.000000 0.000000 0.000000 22.385113 -5.923783 0.336978 -22.967331 1.713549 -2.667691 -8.510123 -4.673927 -3.191012 0.000000 0.000000 0.000000 -25.352446 6.979810 -0.697707 25.216936 -2.997938 10.271609 5.483599 3.876024 -2.892930 
0.025112 0.939584 -0.021053 -3.399424 1.131380 -2.141298 0.000000 0.000000 0.000000 -6.958513 2.517497 6.425626 2.768680 -0.660417 8.993540 9.562252 2.272452 -15.977324 0.000000 0.000000 0.000000 2.512519 5.845035 -31.474443 0.493672 1.081593 20.996478 2.042904 -3.852778 7.967482 0.000000 0.000000 0.000000 4.487676 -2.683334 12.616984 -1.958467 -0.444237 -12.040391 2.968534 1.709542 6.552873 0.000000 0.000000 0.000000 -4.138248 2.237344 7.379879 0.000000 0.000000 0.000000 23.422097 -6.848531 -0.253988 -21.872254 0.690459 -6.001212 -9.587710 -5.805140 -5.131223 0.000000 0.000000 0.000000 -25.068810 5.387440 0.613341 25.819156 -3.615593 11.787560 5.057388 2.982488 -1.059111 
